<svg xmlns="http://www.w3.org/2000/svg" viewBox="0 0 50 50"><defs><style>.cls-1{fill:none;stroke:#015de4;stroke-linecap:round;stroke-linejoin:round;stroke-width:0.75px;}</style></defs><g id="Layer_1" data-name="Layer 1"><path class="cls-1" d="M28.24,11.32m0,1.72-3-1.41V2.42l-.06,0h.06A22.82,22.82,0,0,1,46.42,16.65a22.57,22.57,0,0,1,1.65,8.52,22.89,22.89,0,0,1-1.19,7.3h0a22.8,22.8,0,0,1-44.4-7.3,22.57,22.57,0,0,1,1.65-8.52A22.81,22.81,0,0,1,25.19,2.37,41,41,0,0,0,14.88,16.65h4.3m9.53-4.56"/><path class="cls-1" d="M25.27,2.42A41.05,41.05,0,0,1,35.52,16.65a23,23,0,0,1,1.74,8.51A22.42,22.42,0,0,1,36,32.47C33,41,26.05,47.23,25.27,47.91L25.2,48s-7.66-6.49-10.76-15.5a22.16,22.16,0,0,1-1.3-7.31,23,23,0,0,1,1.74-8.51h4.3m6.09-4.46v-.56M25.2,2.36h0Z"/><polyline class="cls-1" points="25.27 47.98 25.27 47.91 25.27 37.75"/><polyline class="cls-1" points="46.43 16.65 46.42 16.65 35.52 16.65 30.27 16.65"/><polyline class="cls-1" points="19.92 16.65 14.88 16.65 4.12 16.65 4.01 16.65"/><polyline class="cls-1" points="30.81 32.47 35.97 32.47 46.87 32.47 46.88 32.47"/><polyline class="cls-1" points="20.01 32.47 14.44 32.47 4.01 32.47"/><path class="cls-1" d="M28.2,20.45A3,3,0,0,0,25,18.08a2.84,2.84,0,0,0-3.14,3.08c0,.7-.13,3.89,3.39,3.89,2.91,0,3.49,2.09,3.49,3.7a3.54,3.54,0,0,1-3.44,3.17c-2.15,0-3.44-2.19-3.44-2.19"/><line class="cls-1" x1="25.27" y1="18.08" x2="25.27" y2="16.2"/><line class="cls-1" x1="25.27" y1="33.8" x2="25.27" y2="31.92"/></g></svg>