<svg xmlns="http://www.w3.org/2000/svg" viewBox="0 0 50 50"><defs><style>.cls-1{fill:none;stroke:#015de4;stroke-linecap:round;stroke-linejoin:round;stroke-width:0.75px;}</style></defs><g id="Layer_1" data-name="Layer 1"><circle class="cls-1" cx="42.75" cy="14.62" r="2.1"/><circle class="cls-1" cx="42.75" cy="35.09" r="2.1"/><circle class="cls-1" cx="7.29" cy="14.62" r="2.1"/><circle class="cls-1" cx="25" cy="4.8" r="2.1"/><circle class="cls-1" cx="25" cy="25.02" r="2.1"/><circle class="cls-1" cx="25" cy="45.56" r="2.1"/><circle class="cls-1" cx="7.29" cy="35.09" r="2.1"/><line class="cls-1" x1="22.21" y1="6.01" x2="9.93" y2="13.09"/><line class="cls-1" x1="7.29" y1="31" x2="7.29" y2="18.72"/><line class="cls-1" x1="22.48" y1="43.87" x2="10.2" y2="36.78"/><line class="cls-1" x1="42.75" y1="31" x2="42.75" y2="18.72"/><line class="cls-1" x1="39.97" y1="36.71" x2="27.69" y2="43.79"/><line class="cls-1" x1="40.09" y1="13.08" x2="27.81" y2="6"/><line class="cls-1" x1="22.33" y1="23.3" x2="10.05" y2="16.21"/><line class="cls-1" x1="40.04" y1="33.54" x2="27.76" y2="26.45"/><line class="cls-1" x1="39.98" y1="16.22" x2="27.7" y2="23.31"/><line class="cls-1" x1="22.26" y1="26.45" x2="9.98" y2="33.54"/><line class="cls-1" x1="25.02" y1="21.05" x2="25.02" y2="8.77"/><line class="cls-1" x1="25.02" y1="41.43" x2="25.02" y2="29.15"/></g></svg>