<?xml version="1.0" encoding="utf-8"?>
<!-- Generator: Adobe Illustrator 24.1.2, SVG Export Plug-In . SVG Version: 6.00 Build 0)  -->
<svg version="1.1" id="Capa_1" xmlns="http://www.w3.org/2000/svg" xmlns:xlink="http://www.w3.org/1999/xlink" x="0px" y="0px"
	 viewBox="0 0 130.3 128.9" style="enable-background:new 0 0 130.3 128.9;" xml:space="preserve">
<style type="text/css">
	.st0{fill:#8595B1;}
</style>
<g>
	<g>
		<g>
			<circle class="st0" cx="20.5" cy="19.8" r="19.1"/>
		</g>
		<g>
			<circle class="st0" cx="109.8" cy="19.8" r="19.1"/>
		</g>
		<g>
			<path class="st0" d="M65.2,45.3C54.6,45.3,46,53.9,46,64.5l0,0l0,0V74c0,8.8-7.1,16-16,16h-9.5h-0.1C9.9,90,1.3,98.6,1.3,109.1
				s8.6,19.1,19.1,19.1c10.6,0,19.1-8.6,19.1-19.1V109v-9.5c0-8.8,7.1-16,16-16h9.6l0,0l0,0c10.6,0,19.1-8.6,19.1-19.1
				S75.7,45.3,65.2,45.3z"/>
		</g>
		<g>
			<path class="st0" d="M65.2,0.6C54.6,0.6,46,9.2,46,19.8l0,0v9.6c0,8.8-7.1,16-16,16h-9.6l0,0C9.8,45.4,1.3,54,1.3,64.5
				c0,10.6,8.6,19.1,19.1,19.1c10.6,0,19.1-8.6,19.1-19.1v-0.1v-9.5c0-8.8,7.1-16,16-16H65h0.1c10.6,0,19.1-8.6,19.1-19.1
				S75.7,0.6,65.2,0.6z"/>
		</g>
	</g>
</g>
</svg>
